# xmcd CD database file generated by OrangeCD 4.2
#
# Track frame offsets:
#	151
#	17924
#	36803
#	54765
#	73797
#	93513
#	111414
#	139863
#	158360
#	175296
#	202324
#	218959
#
# Disc length: 3124 seconds
#
# Revision: 0
# Processed by: cddbd v1.4PL0 Copyright (c) Steve Scherf et al.
# Submitted via: OrangeCD 4.2
#
DISCID=ad0c320c
DTITLE=Blues Wire - Steady Gig
DYEAR=1900
DGENRE=Blues
TTITLE0=I Wish you Would
TTITLE1=Six Strings Down
TTITLE2=Homely Girl
TTITLE3=Junko Partner
TTITLE4=Sensitive Kind
TTITLE5=Steady Gig
TTITLE6=Texas Flood
TTITLE7=Shake It
TTITLE8=Love Me
TTITLE9=Catch Me When I Fall
TTITLE10=Lil' More Dirt To Clean
TTITLE11=Buy A Dog
EXTD=
EXTT0=
EXTT1=
EXTT2=
EXTT3=
EXTT4=
EXTT5=
EXTT6=
EXTT7=
EXTT8=
EXTT9=
EXTT10=
EXTT11=
PLAYORDER=
